<?xml version="1.0" standalone="no"?>
<!DOCTYPE svg PUBLIC "-//W3C//DTD SVG 20010904//EN"
 "http://www.w3.org/TR/2001/REC-SVG-20010904/DTD/svg10.dtd">
<svg version="1.0" xmlns="http://www.w3.org/2000/svg"
 width="686.000000pt" height="302.000000pt" viewBox="0 0 686.000000 302.000000"
 preserveAspectRatio="xMidYMid meet">

<g transform="translate(0.000000,302.000000) scale(0.100000,-0.100000)"
fill="#000000" stroke="none">
<path d="M2080 1958 c-210 -23 -370 -45 -376 -51 -8 -9 4 -82 44 -274 l56
-263 68 0 c77 0 75 2 53 -80 -8 -30 -15 -58 -15 -62 0 -22 41 2 171 102 l144
110 108 0 c102 0 108 1 117 23 9 23 70 463 70 510 0 34 21 35 -440 -15z"/>
<path d="M4420 1660 l0 -260 30 0 30 0 0 260 0 260 -30 0 -30 0 0 -260z"/>
<path d="M3262 1878 c-7 -7 -12 -21 -12 -33 0 -44 44 -59 75 -25 17 18 17 21
1 45 -18 27 -45 32 -64 13z"/>
<path d="M3810 1870 c-15 -29 -3 -59 26 -66 30 -8 54 11 54 40 0 46 -59 64
-80 26z"/>
<path d="M3990 1645 l0 -245 113 0 c172 1 227 36 227 145 0 38 -5 52 -29 76
-16 16 -37 29 -45 29 -9 0 -16 5 -16 10 0 6 5 10 10 10 25 0 60 53 60 92 0 97
-53 128 -215 128 l-105 0 0 -245z m232 168 c11 -10 18 -30 18 -54 0 -50 -29
-70 -115 -77 l-65 -5 0 77 0 76 72 0 c52 0 76 -4 90 -17z m-7 -198 c44 -18 60
-54 44 -102 -14 -44 -56 -63 -139 -63 l-60 0 0 90 0 90 60 0 c33 0 76 -7 95
-15z"/>
<path d="M2660 1565 l0 -165 29 0 29 0 4 108 c4 114 14 142 55 161 36 16 51
14 78 -14 24 -23 25 -30 25 -140 l0 -115 30 0 30 0 0 111 c0 109 0 111 29 140
34 34 69 37 102 10 22 -18 24 -27 27 -140 l4 -121 29 0 29 0 0 108 c0 175 -26
222 -121 222 -37 0 -54 -6 -79 -27 -28 -23 -34 -25 -44 -12 -34 46 -118 53
-165 13 l-31 -26 0 26 c0 22 -4 26 -30 26 l-30 0 0 -165z"/>
<path d="M3260 1565 l0 -165 30 0 30 0 0 165 0 165 -30 0 -30 0 0 -165z"/>
<path d="M3427 1723 c-4 -3 -7 -78 -7 -165 l0 -158 29 0 29 0 4 111 c3 111 3
111 36 140 38 34 70 37 106 8 25 -20 26 -23 26 -140 l0 -119 31 0 31 0 -4 141
-3 141 -30 25 c-26 21 -38 24 -87 20 -44 -2 -64 -9 -83 -27 l-25 -23 0 26 c0
22 -5 27 -23 27 -13 0 -27 -3 -30 -7z"/>
<path d="M3820 1566 l0 -166 30 0 30 0 -2 163 -3 162 -27 3 -28 3 0 -165z"/>
<path d="M4662 1713 c-72 -35 -109 -127 -83 -206 16 -46 80 -104 125 -113 112
-21 211 60 210 171 -2 125 -138 205 -252 148z m161 -73 c31 -35 36 -93 12
-140 -19 -37 -43 -50 -93 -50 -77 0 -128 77 -102 154 26 79 126 99 183 36z"/>
<path d="M5074 1716 c-67 -29 -105 -118 -85 -196 30 -116 163 -162 256 -88
l28 22 -6 -54 c-5 -44 -12 -60 -37 -82 -41 -38 -111 -39 -164 -3 l-37 25 -19
-22 c-11 -13 -19 -26 -20 -29 0 -14 80 -48 128 -55 95 -12 184 41 203 122 4
22 9 114 9 207 l0 167 -30 0 c-25 0 -30 -4 -30 -25 l0 -24 -36 24 c-42 29
-109 33 -160 11z m143 -56 c66 -40 66 -150 -1 -191 -56 -34 -131 -16 -155 38
-50 109 57 214 156 153z"/>
</g>
</svg>
